<svg xmlns="http://www.w3.org/2000/svg" viewBox="0 0 167.2 174.02"><defs><style>.cls-1{fill:#585661;}.cls-2{fill:#cba78f;}.cls-3{font-size:88px;fill:#0069a3;}.cls-3,.cls-4,.cls-5{font-family:MonotypeCorsiva, Monotype Corsiva;}.cls-4{font-size:47.12px;}.cls-5{font-size:74.99px;fill:#1026c6;}</style></defs><title>virtuclass_logoAsset 1</title><g id="Layer_2" data-name="Layer 2"><g id="OBJECTS"><path class="cls-1" d="M154.21,96.81a76.21,76.21,0,1,1-135-49.2L17.9,46.35A78,78,0,1,0,156,96.81Z"/><path class="cls-1" d="M151.32,96.81A73.33,73.33,0,1,1,21.24,49.64L20.6,49a74.21,74.21,0,1,0,131.61,47.8Z"/><path class="cls-2" d="M67.49,16.89a4.7,4.7,0,0,1,3.58-1.13,40.75,40.75,0,0,1,4.11.54A57.28,57.28,0,0,0,85.84,17c6.29.09,8.89-4,12.32-7.22a11,11,0,0,0,3.77-5.55C102.58,2,98.57,2,96.59,1.72,93.31,1.39,89.75.43,86.31.1s-6.73,0-9.22,2.1c-2.9,2-5.44,4.31-8.55,6.21-1.9,1.34-2.18,3.45-2.26,5.3A5.63,5.63,0,0,1,65,17.36c-1.23,1-2.33,4-3.73,4.23a95.77,95.77,0,0,0-18.87,6.55,76.76,76.76,0,0,0-15.89,10c-.73.83-3.38,2.16-2.42,3.29.38.18,1.08-.13,1.92-.71.41-.31.91-.62,1.41-1s1-.8,1.61-1.18a60.76,60.76,0,0,1,5.77-3.83A86.94,86.94,0,0,1,43,30.44c2.5-.89,4.92-2.82,7.75-2.64,2.38.13,4.48,1.05,5.08,3.1.41,2.59.33,5.63,1,8.3s1.8,5,4.67,6.28c2.45,1.18,5.23,1.58,7.83,2.66,1.64.43,4.83,2.86,5.35,0,.7-3.07,2-6.24.19-9.27-1.45-2.51-2.65-5.15-4.44-7.31a11.55,11.55,0,0,0-7.86-4.38,18.74,18.74,0,0,0-6.47.19c-1.1.16-2.06-.37-3.11-.58-.16,0-.39,0-.42-.17s.22-.2.37-.26A83.73,83.73,0,0,1,71.14,21.9,13,13,0,0,1,79.6,23c1.72.63,1.47,2.11,1.21,3.27a61.79,61.79,0,0,1-1.67,6.56,5.59,5.59,0,0,0,1,5.42,90.69,90.69,0,0,0,7.34,8c2.69,2.09,5.48-3,6-4.89A12.07,12.07,0,0,0,93.27,31,15.14,15.14,0,0,0,84,23.52c-1.46-.5-2.66-1.34-4.09-1.87a.28.28,0,0,1-.14-.12c0-.14.12-.12.21-.12a62.33,62.33,0,0,1,8,.44,80.76,80.76,0,0,1,11.34,2.09,38.55,38.55,0,0,1,9.72,3.8c2.48,1.53,3.85,3.18,3.38,4.89-2,2.27-4.82,2.41-7.57,2.94S99.4,37,98,40.46c-.76,2.64-5.17,7.68-.27,9.13a11.84,11.84,0,0,0,2.57.52,14.59,14.59,0,0,0,2.48,0c1.58-.14,3.21-.54,4.78-.82A9,9,0,0,0,114.16,44a13,13,0,0,0,.82-8.67A20.08,20.08,0,0,0,113.24,30c-.3-.69,1.4.42,1.64.53a83.19,83.19,0,0,1,15.2,10.92,7.81,7.81,0,0,1,1.5,4.1A3.12,3.12,0,0,1,130,48.86a16.12,16.12,0,0,0-4.07,1.94,5.84,5.84,0,0,0-2.35,3.58c-.57,1.71-1.43,3.37-2,5a15.74,15.74,0,0,0-.66,2.41,6.78,6.78,0,0,0-.07,2.37c.32.58-.08,3.07-.35,4.79a5.43,5.43,0,0,0-.21,2.1c.14.38.41.57,1.2.11,1.86-1.09,4-1.92,5.59-3.47,2.29-2,4.51-3.31,6.2-5a8.35,8.35,0,0,0,2-3,9.58,9.58,0,0,0,.27-4.52,16.45,16.45,0,0,0-1.18-3.32l-.51-1.08c-.17-.31-.33-.58-.47-.87a7.31,7.31,0,0,1-.63-2.13c-.14-.93-.22-2.2-.43-4a17.52,17.52,0,0,1,2.37,2.42A25.78,25.78,0,0,1,136.82,49l2,2.83c.59,1,1.2,1.93,1.84,2.83a4.89,4.89,0,0,1,.82,1.49,7.36,7.36,0,0,1,.39,1.44,7.05,7.05,0,0,1-.12,2.68c-.46,1.77-1.33,3.41-1.83,5.12a9,9,0,0,0-.41,3.73,8.59,8.59,0,0,0,.39,1.59,8.13,8.13,0,0,0,.64,1.56,55.66,55.66,0,0,0,4.32,6.12c1,1.66,1.92,3.53,3,5.28a16.61,16.61,0,0,0,3.6,4.88c1.64,1.64,2.72-.92,3.26-2.42.37-1.14.8-2.29,1.21-3.47a31,31,0,0,0,1-3.61,20.91,20.91,0,0,0,.49-3.81,15.58,15.58,0,0,0-.58-4c-.18-.68-.3-1.37-.51-2s-.43-1.34-.66-2-.47-1.3-.73-1.92a9.12,9.12,0,0,0-.9-1.76c-1.41-2.2-3.2-3.87-6-4.09-2-.32-4.46-.22-5.56-2.7-.37-.73-.68-1.51-1.08-2.22l-1.24-2.15a45.62,45.62,0,0,0-2.75-4.23,9.78,9.78,0,0,0-.6-.88l-.72-.82a9.35,9.35,0,0,1-1.23-1.68,11.61,11.61,0,0,1,2.75.74,7.23,7.23,0,0,1,1.5.93c.48.35.94.72,1.4,1.11l1.36,1.18c.41.43.83.86,1.26,1.27,1.19,1,2.56,1.94,3.85,2.85A20,20,0,0,0,149,54c.35.18.71.35,1.06.51s.68.32,1,.46c2.71,1.12,5.55,1.42,7.65-.23a5.37,5.37,0,0,1,1.84-.91,11.48,11.48,0,0,0,5.1-3.08c1.6-1.7,2.36-4.1.1-6.47a42.26,42.26,0,0,0-7.48-6,35.19,35.19,0,0,0-3.95-2.19,42.92,42.92,0,0,0-4-1.55,7.31,7.31,0,0,0-3.62-.55,4.51,4.51,0,0,0-2.17.88c-1.17.86-2.08,2.06-3.94,2.78-2.48.79-2.46,3.49-3.14,5.64-.22.71-.35.75-1.2.56-.65-.21-1.34-.29-2-.47a3,3,0,0,1-1.77-1A73.78,73.78,0,0,0,113.05,28c-1.65-.67.53-.71,1.12-.89,1.8-.23,3.73,1,5.65,1.21,3.68,1,5.94.54,7.82-.42s3.33-2.72,5.45-4.19a15.41,15.41,0,0,0,4.48-4.23,1.29,1.29,0,0,0,.28-1.3,3.56,3.56,0,0,0-1.29-1.48c-4.23-3.65-8.91-2.34-13.07-2.77-1.56-.27-3.3-.8-4.81-.9s-2.79.21-3.56,1.37c-1.54,2.1-1.23,4.86-1.39,7.35A14.12,14.12,0,0,1,113.5,25c-.38,1.39-.38,1.4-2.1,1.57a3.87,3.87,0,0,1-2.16-.37A64.17,64.17,0,0,0,101.42,23a74.91,74.91,0,0,0-30.63-3c-3.53.28-5.69,1-6.3.82S64.73,19.72,67.49,16.89Zm-4.3,15.3,0,0a.24.24,0,0,1,.26.12c2.74,1.2,4.67,3.74,7.62,4.52l0,0c-2.28-1.54-4.35-3.31-6.68-4.82a11.81,11.81,0,0,0-2.45-1.26c-1.73-.63-3.12-1.8-4.76-2.59-1.1-.48.6-.61,2.64-.42a17.4,17.4,0,0,1,4.57.83,10.49,10.49,0,0,1,5.69,4.27c1.35,1.86,2.37,4,3.71,5.81a6.57,6.57,0,0,1,.91,5.87,27.76,27.76,0,0,0-.81,3.5c-.15.86-.33,1-1.18.63-4.21-2.26-8.32-2.91-11.19-4.45S56.78,40.2,56.9,34a8.14,8.14,0,0,0-1-4.85c2.93.14,3.53,3.8,3.68,5.87a25.28,25.28,0,0,0,2.23,7.88c0,.11,0,.29.24.25-.74-2.58-1.82-5.07-1.82-7.79a12.22,12.22,0,0,0-.95-4.73,10.93,10.93,0,0,1,2.57,1.61c2,1.55,4.12,3.17,4.65,5.59.89,2.09.75,4.46,1.17,6.52a16.28,16.28,0,0,0-1-7.62h0c.43,0,.55.32.77.53a53.57,53.57,0,0,0,4.64,4c.17.08.61.57.73.34-3.21-2.86-6.22-6.11-9.27-9.24l-.29-.12Zm63.15-14.51c-.18-.07-.23.09-.28.19A17.1,17.1,0,0,1,123.21,22a11.18,11.18,0,0,1-5.33,2.81,17.64,17.64,0,0,0,.9-6.81c-.07-.23,0-.76-.34-.82s-.11.32-.1.5c-.15,3,.08,7.5-3.93,8.35-.36.1-.48-.06-.38-.32.91-3.29-.32-7.07,1.22-10.22,1-2.15,3.54-1.92,6.41-1a12.77,12.77,0,0,0,3.63.37c1.23,0,2.47-.06,3.71-.06a10.4,10.4,0,0,1,7.43,2.46c.88.72,1,1.18.6,1.78-1.8,3.22-6.34,4.46-8.8,7.22a4.89,4.89,0,0,1-2.3,1.33A9.11,9.11,0,0,1,123,28a18.41,18.41,0,0,1-3.17-.35,26.19,26.19,0,0,1-3.12-.7c-.35,0-.42-.26-.09-.34,1.55-.31,2.72-1.49,4.48-1.35,1,.07,5.87.6,5.88-.26-.09-.27-.75-.09-1.14-.1s-5,.23-4.23-.42c1.67-.82,3.26-1.81,4.9-2.74.82-.47,1.65-.93,2.51-1.35a18.54,18.54,0,0,1,2.74-1,6.41,6.41,0,0,0-1.95.11,10.73,10.73,0,0,0-1.88.65c-1.23.52-2.38,1.16-3.41,1.51,0-.05,0,0,.11,0C125,20.24,126.61,19.15,126.34,17.68ZM103.23,44.32c1.61.26,2.94-.5,4.44-.67l0,0q-.09,0,0,0a23.66,23.66,0,0,0-2.24,1.85l.06.06a25,25,0,0,0,3.88-3A26.8,26.8,0,0,0,112.56,39c.13,0,.1.12.1.2A26.07,26.07,0,0,1,111,43.93l0,0c.38,0,.37-.33.46-.53a20,20,0,0,0,2.1-6.48,4.75,4.75,0,0,1,.6-1.73c1.34,5.17-.68,11.15-6,13a24.28,24.28,0,0,1-5.21,1.32,12.21,12.21,0,0,1-2.77,0,11.31,11.31,0,0,1-2.82-.74c-3-1.11,1.09-6.33,1.69-8.11a8.18,8.18,0,0,1,6.41-4.37c2.59-.38,5.39-1,7.14-2.76.18-.28.52-.14.44.16.26,2.52-1.86,3.27-4.38,3.87-1.26.29-2.6.49-3.83.8a7.35,7.35,0,0,0-3.06,1.37h0a18.68,18.68,0,0,1,6-1.28,12.51,12.51,0,0,0,4.2-.84c.18.13,0,.27,0,.39a14.17,14.17,0,0,1-2.57,4c-1.58,1.52-4.16,1.62-6.1,2.32Zm21.61,13.59a18.4,18.4,0,0,0,5.27-3.75c-.39,1.15-.77,2.18-1.14,3.08a15.44,15.44,0,0,1-1.18,2.41,14.69,14.69,0,0,1-4.23,4.19c-.46.29-.2.47.12.14,1.77-1.19,2.7-2.09,3-2.23.15-.07.15.06,0,.44s-.34,1-.76,2c-.08.26-.28.55-.14.78h0l1-2c.31-.69.63-1.37.94-2,.64-1.39,1.31-2.8,2.08-4.15.18,0,.11.21.1.34,0,1-.14,2-.15,3a8.57,8.57,0,0,0,.17,2.81c.31-.27.13-.56.14-.84,0-.94.14-2,.19-2.95l.18-3c.27-2,1.42-3.67,1.75-5.63.15-.75,1.13.89,1.67,2.91a16.33,16.33,0,0,1,.64,2.83,4,4,0,0,1,0,1.6,7.17,7.17,0,0,1-2.16,4.8,31.82,31.82,0,0,1-4.2,3.52,20.6,20.6,0,0,1-4.62,3.6c-.72.29-3,2.12-2.84,1.15.23-2.13,1.47-5.08.87-7.65a7.77,7.77,0,0,1,.72-4.43c.62-1.48,1.53-3,2.08-4.52a5.25,5.25,0,0,1,2.87-3.11c.65-.35,1.35-.66,2-1a9.11,9.11,0,0,0,1.86-1.1.16.16,0,0,1,.28.17c-.26,4.12-3.48,6.7-6.58,8.7Zm29.41-8a51.85,51.85,0,0,0-5.48-3c-.14-.06-.38-.07-.39-.31a30.69,30.69,0,0,1,4.46.14,12.24,12.24,0,0,0,4.22-.19v0a40.16,40.16,0,0,0-4.56-.49,33.32,33.32,0,0,1-4.71-.49c-.24-.08-.7,0-.84-.3A17.44,17.44,0,0,1,154.56,41a9.11,9.11,0,0,1,3.61,0c.19,0,.57.24.45-.11-1-.69-2.59-.49-3.52-.47a13.8,13.8,0,0,0-8.16,3.67,3.76,3.76,0,0,1-3.75.94c-5.09-.63-1.89-.27-1.34-3.46-.12-.11-.2,0-.24,0l-2,2.58c-.11.36-1.45.22-1.26-.23.57-1.08.51-2.45.89-3.63A4.67,4.67,0,0,1,142,38a8.26,8.26,0,0,0,3.28-2c2.09-1.55,5.53-.81,9.33,1a54,54,0,0,1,5.51,3.48c1.69,1.34,3.3,2.73,4.74,3.94,1.17,1.08,2.13,2.23,1.42,3.26-1.28,2.6-3.06,4.46-5.7,5a7,7,0,0,0-2.86,1.17c-1.46,1.18-3.4,1.08-5.36.45a29.39,29.39,0,0,1-3-1.24,28.59,28.59,0,0,1-2.89-1.64,22.77,22.77,0,0,1-3.37-2.77,20.67,20.67,0,0,0-1.63-1.46c-.56-.46-1.12-.92-1.69-1.34,0-.19.15-.13.27-.13A5.1,5.1,0,0,1,143.18,47c1,.77,1.86,1.77,2.85,2.46.35.21,1,1,1.25.68.07-.15-.17-.29-.31-.41s-1.42-1.22-2.44-2.14l-.71-.65c-.22-.2-.41-.36-.54-.5s-.27-.43.12-.35c1.43.16,2.77,0,4.2.85A42.55,42.55,0,0,0,154.28,50Zm-8.93,15.34c.14,0,.19.12.24.23.29.7.58,1.39.89,2.08l.8,2.14c.27.71.56,1.41.85,2.12s.52,1.44.8,2.15c.19.38.67,1.73,1.07,1.64.14-.11,0-.3-.06-.44s-.79-2-1.42-3.6-1.12-2.87-.42-2.13l1.56,1.3a16.92,16.92,0,0,1,1.52,1.4,20.37,20.37,0,0,1,2.65,3.3c.06.09.13.29.26.18s.06-.25,0-.36a23.32,23.32,0,0,0-2.94-3.79c-1.13-1.12-2.32-2.13-3.41-3.18a4.12,4.12,0,0,1-.75-1,6.19,6.19,0,0,1-.54-1.13c-.31-.79-.53-1.64-.88-2.39,0-.11-.1-.27,0-.34,1.83,1.12,4,1.77,6,2.82.16.09.44.29.48.16a1.59,1.59,0,0,0-.63-.72,7.49,7.49,0,0,0-1.17-.61c-.86-.38-1.77-.68-2.22-.93a5.63,5.63,0,0,1-2.52-1.5A6.73,6.73,0,0,1,144,59.9c-.11-.26,0-.38.21-.26a14.07,14.07,0,0,0,5.05,1.11,5.82,5.82,0,0,1,3.5,1.84,9.78,9.78,0,0,1,1.37,1.78,11,11,0,0,1,.84,2.16c.31,1.07.62,2.17.93,3.26s.45,2.2.6,3.29a12.83,12.83,0,0,1-.46,6.3c-1,2.83-1.49,6.15-2.82,8.71-.64,1-1.91-.44-3.06-2.21-.59-.88-1.12-1.87-1.59-2.69s-.84-1.5-1-1.82a21,21,0,0,0-1.77-3.12,27.48,27.48,0,0,0-2.27-2.63,12.15,12.15,0,0,1-2.91-4.15,7.75,7.75,0,0,1-.26-3.81,16.69,16.69,0,0,1,.5-2l.64-2.07A36.34,36.34,0,0,0,142.74,59c.17,0,.18.14.23.24.29.81.72,1.6,1.08,2.4a5,5,0,0,1,.59,2.45,17,17,0,0,1-.62,4.1,8.62,8.62,0,0,0-.3,4h0c.2-1.15.51-2.3.84-3.48S145.09,66.39,145.32,65.22ZM86.65,14.15c-1.54-.56-3.38-.57-5-1.09a30.85,30.85,0,0,0-7.38-.94A14,14,0,0,1,82.88,9.5c2.58,0,5.17,1,7.66.81a76.33,76.33,0,0,0-7.92-1.55c3.83-1.59,9-1.54,12.86-3.14.52-.54-1.44.24-1.77.29C87.05,7.2,79.8,7.81,74,10.9c-.31.26-.64.17-.35-.2a16.1,16.1,0,0,1,7.69-6.35c1.93-.7,1.54-1.09-.17-.19a27.84,27.84,0,0,0-4.56,2.31A11.66,11.66,0,0,0,72.78,11a2.49,2.49,0,0,1-1.19,1.16A25.62,25.62,0,0,0,68,14.58c-.18.22-.45.14-.4-.13.19-2.12.18-4.5,2.35-6C72.44,6.52,75,4.23,78,2.62A15,15,0,0,1,88.8,1.09c3.43.61,6.81,1.12,10.18,1.5,2.17.25,2.43.6,1.84,2.08A11.58,11.58,0,0,1,97.62,9c-3.24,2.55-4.9,6.7-10.15,7.16-5.72.66-11.7-1.25-17.55-1.2A5.1,5.1,0,0,1,74.06,13C78.58,12.52,82.42,14.26,86.65,14.15ZM83.12,39.09c0,.15,0,.9.28.54-.18-4.28,1.92-8.27,1.48-12.54-.07-.82.92.2,1.93,1.47a23.7,23.7,0,0,1,2.07,3c.59,2.46-1,4.93-1.32,7.21.43,0,.54-1,.74-1.27.59-1.3.83-3,1.39-4.17a15.78,15.78,0,0,1,1.19,3.88c0,.13-.06.28.15.35a16.87,16.87,0,0,0-5.41-12.21c-.47-.3-.21-.57.21-.25,6.19,3.13,9.09,9.18,7.43,14.64a9.68,9.68,0,0,1-3.52,5.89c-.92,1-1.77.31-2.53-.53-1.79-2.23-3.79-4.34-5.62-6.56a5.26,5.26,0,0,1-1.35-5.11,33.5,33.5,0,0,0,1.65-9c1.62.38,1.88,2.56,2,3.66C84.23,31.87,82.93,35.31,83.12,39.09Zm69.2,46.55c-.27-1.1-.38-2.3-.64-3.48a28.28,28.28,0,0,0-.88-3.49c0-.16-.15-.49,0-.57A12.25,12.25,0,0,1,152,81.83C152.45,83.6,152.56,85.42,152.32,85.64Zm-8.71-13.2a.52.52,0,0,1,.09-.29.29.29,0,0,1-.08.27Zm0,0s0,0,0,0v0ZM71.14,36.9h-.07S71.12,36.89,71.14,36.9Zm83.58,13.21a3.29,3.29,0,0,1,1.2.47l0,.15a2.32,2.32,0,0,1-1.21-.51Zm1.92.75c.7,0,.78.64,0,.15Zm-.72-.28a1,1,0,0,1,.72.28l0,.15a1,1,0,0,1-.71-.28Zm-1.67-.7a.66.66,0,0,1,.47.23l0,.11c-.15.06-.31-.06-.46-.18Zm2.81-3.28h.12s-.07,0-.12,0ZM124.84,57.91a1.18,1.18,0,0,1-.71.42h0a1,1,0,0,1,.69-.47Zm-1.13.61c-.07.22-.25.26-.41.33s.32-.35.42-.31Zm.21-.08c0-.1.12-.15.21-.1h0c-.06.09-.12.14-.21.1Zm0,0c0,.11-.11.15-.21.09v0c0-.1.11-.14.2-.1ZM102.16,44.37a.69.69,0,0,1-.85.07,8.46,8.46,0,0,1,.87,0Zm8.84-.46c.11.39-.14.62-.38.87l0,0c0-.36.2-.6.38-.87Zm-5.7,1.78c-.21.24-.38.53-.82.37v0c.27-.13.46-.37.78-.43Zm-2.07-1.37a1.28,1.28,0,0,1-1.07,0l0,0a1.66,1.66,0,0,1,1.06,0Zm-1.48-4.6c0,.11,0,.15-.16.15s0-.24.15-.15Zm8.87,5.06c-.06.31-.3,0,0,0Zm-5.11.77a.18.18,0,0,1-.21.14l0,0a.2.2,0,0,1,.2-.16Zm-1,.51,0,.06,0,0Z"/><text class="cls-3" transform="translate(12.29 101.53) scale(1.15 1)">I</text><text class="cls-4" transform="translate(52.84 112.02) scale(0.94 1)">&amp;</text><text class="cls-5" transform="translate(87.5 142.8) scale(0.82 1)">L</text></g></g></svg>